<?xml version="1.0" standalone="no"?>
<!DOCTYPE svg PUBLIC "-//W3C//DTD SVG 20010904//EN"
 "http://www.w3.org/TR/2001/REC-SVG-20010904/DTD/svg10.dtd">
<svg version="1.0" xmlns="http://www.w3.org/2000/svg"
 width="447.000000pt" height="445.000000pt" viewBox="0 0 447.000000 445.000000"
 preserveAspectRatio="xMidYMid meet">

<g transform="translate(0.000000,445.000000) scale(0.100000,-0.100000)"
fill="#000000" stroke="none">
<path d="M3943 3160 c-12 -5 -28 -19 -37 -32 -13 -22 -125 -354 -144 -428 -7
-32 -12 -36 -53 -42 -77 -12 -199 -9 -199 4 0 6 30 101 67 211 63 187 66 201
52 226 -20 35 -74 61 -131 61 -78 0 -89 -16 -169 -250 -110 -324 -159 -529
-159 -670 0 -96 13 -112 99 -118 82 -6 89 3 134 183 21 83 44 155 50 162 7 6
63 14 128 18 l117 7 -25 -83 c-33 -117 -40 -192 -20 -223 21 -32 77 -49 140
-43 63 6 75 21 106 135 30 111 107 359 177 576 61 187 69 242 40 275 -32 35
-122 51 -173 31z m150 -32 c46 -33 45 -38 -88 -453 -43 -132 -92 -296 -111
-364 -18 -68 -40 -131 -49 -140 -20 -21 -110 -21 -150 -1 l-30 16 2 84 c1 59
9 108 26 163 22 68 23 77 8 77 -9 0 -71 -5 -139 -12 l-122 -12 -19 -61 c-10
-33 -28 -103 -41 -155 -32 -134 -39 -143 -106 -138 -104 9 -113 44 -68 290 36
199 192 677 231 708 57 44 175 8 181 -56 2 -17 -13 -78 -34 -135 -38 -109 -94
-287 -94 -300 0 -12 254 2 266 15 7 6 37 93 68 193 84 274 91 291 129 302 42
13 105 3 140 -21z"/>
<path d="M2667 3137 c-93 -29 -236 -169 -353 -345 -78 -118 -77 -118 -70 -37
8 86 -9 263 -31 317 -28 70 -122 91 -181 41 -26 -23 -44 -60 -92 -188 -112
-296 -224 -679 -218 -744 4 -46 42 -73 111 -79 80 -6 90 3 125 115 17 54 47
152 69 218 l38 120 3 -80 c3 -108 7 -122 45 -145 64 -39 136 -20 169 44 56
111 299 459 305 439 2 -6 -21 -89 -51 -185 -30 -96 -71 -238 -91 -317 -31
-124 -34 -148 -24 -178 15 -47 60 -73 127 -73 70 0 89 12 102 63 24 95 95 342
140 487 68 218 86 285 100 361 10 58 10 71 -5 100 -35 67 -126 94 -218 66z
m130 -12 c47 -9 83 -57 83 -108 0 -52 -33 -180 -104 -410 -54 -171 -127 -424
-140 -479 -3 -15 -13 -34 -22 -42 -33 -33 -150 -9 -178 36 -13 22 2 112 49
283 46 168 110 377 135 438 10 27 16 47 12 45 -40 -17 -265 -332 -362 -505
-29 -53 -72 -71 -125 -53 -61 20 -68 42 -62 186 3 69 4 125 2 123 -7 -8 -48
-128 -105 -305 -76 -239 -70 -228 -134 -221 -67 7 -105 25 -112 54 -11 41 71
333 175 630 85 239 100 275 124 300 31 31 84 38 127 16 50 -26 60 -72 67 -293
4 -102 8 -179 11 -171 8 23 103 163 168 247 118 152 265 254 344 238 8 -1 30
-5 47 -9z"/>
<path d="M3058 3139 c-30 -17 -34 -27 -109 -289 -113 -393 -157 -621 -133
-685 17 -44 154 -64 188 -26 10 11 26 59 36 108 11 48 26 113 35 143 47 169
92 323 136 463 65 210 64 253 -6 283 -40 16 -122 18 -147 3z m160 -26 c17 -13
28 -31 30 -51 2 -18 -21 -108 -52 -209 -81 -262 -155 -523 -172 -611 -10 -51
-22 -83 -36 -94 -25 -22 -77 -23 -123 -4 -27 12 -35 22 -41 50 -8 47 16 187
72 406 93 364 138 504 167 526 30 21 119 14 155 -13z"/>
<path d="M695 3109 c-143 -27 -304 -107 -382 -190 -75 -80 -100 -170 -68 -247
32 -75 90 -114 257 -173 146 -51 172 -67 176 -106 3 -25 -3 -36 -30 -57 -68
-52 -258 -75 -323 -40 -89 49 -85 48 -121 31 -48 -23 -68 -58 -61 -110 4 -34
15 -50 52 -85 96 -87 285 -101 461 -34 156 59 294 214 294 330 0 115 -98 200
-297 257 -109 31 -163 54 -163 70 0 40 118 107 227 130 75 16 101 9 130 -31
16 -22 29 -28 57 -28 100 0 141 161 62 240 -51 51 -145 66 -271 43z m228 -26
c102 -52 83 -243 -24 -243 -13 0 -36 15 -55 35 -36 40 -56 43 -153 20 -84 -20
-179 -71 -202 -110 -11 -16 -19 -33 -19 -37 0 -14 85 -51 157 -69 162 -41 301
-135 304 -206 8 -135 -65 -247 -215 -332 -125 -72 -331 -91 -441 -42 -91 40
-141 112 -114 163 31 61 78 76 126 39 55 -44 173 -48 305 -11 74 21 122 85 98
130 -13 24 -82 60 -175 90 -144 47 -242 110 -260 168 -33 109 33 226 181 318
153 96 389 138 487 87z"/>
<path d="M1468 3061 c-129 -52 -261 -182 -348 -344 -61 -113 -81 -179 -87
-292 -8 -137 10 -199 77 -265 92 -93 206 -100 360 -23 100 51 213 159 230 222
8 32 9 51 1 68 -18 40 -53 29 -143 -43 -128 -104 -221 -137 -276 -98 -19 13
-22 24 -22 88 l0 73 62 6 c97 9 213 72 315 172 55 54 90 99 107 135 49 106 27
218 -57 284 -33 26 -48 31 -105 33 -48 2 -80 -2 -114 -16z m197 -20 c82 -46
113 -152 75 -253 -55 -147 -303 -328 -450 -328 -34 0 -38 -3 -44 -31 -15 -77
-2 -140 34 -159 64 -34 179 8 298 109 80 69 105 74 110 24 5 -48 -24 -97 -93
-161 -89 -81 -194 -133 -283 -140 -82 -5 -130 8 -178 51 -203 177 -44 671 278
865 86 51 186 60 253 23z"/>
<path d="M1534 2906 c-68 -30 -166 -147 -208 -248 l-15 -36 47 13 c60 15 84
28 149 76 49 37 123 130 123 154 0 16 -38 55 -53 55 -7 -1 -26 -7 -43 -14z
m66 -15 c16 -32 12 -47 -30 -99 -45 -58 -112 -107 -182 -134 -57 -21 -59 -15
-18 58 43 74 112 148 162 173 53 26 55 26 68 2z"/>
<path d="M4009 2143 c-43 -7 -60 -35 -101 -170 -76 -249 -128 -473 -134 -573
-5 -86 -4 -99 18 -140 69 -134 276 -123 427 23 108 105 138 184 85 226 -37 29
-49 27 -102 -22 -82 -75 -143 -117 -173 -117 -15 0 -30 3 -33 8 -8 13 19 111
99 352 79 242 96 321 76 358 -21 39 -99 66 -162 55z m118 -33 c62 -37 59 -57
-58 -410 -42 -129 -80 -256 -84 -282 -6 -41 -5 -48 15 -58 38 -21 98 12 207
113 43 39 56 46 71 38 63 -34 50 -91 -45 -191 -81 -87 -162 -130 -257 -137
-58 -5 -70 -3 -111 22 -30 17 -52 39 -61 61 -28 67 -11 244 42 429 7 28 34
122 59 210 25 88 48 168 51 177 10 35 34 48 87 48 34 0 63 -7 84 -20z"/>
<path d="M3568 2066 c-50 -18 -83 -40 -142 -95 -104 -98 -237 -282 -311 -431
-43 -85 -95 -241 -95 -282 0 -52 108 -95 166 -65 24 12 35 32 64 113 39 109
31 103 155 119 l51 6 -9 -76 c-13 -103 1 -151 48 -171 40 -16 83 -18 119 -4
29 11 37 35 66 190 11 58 33 170 50 250 36 171 49 334 30 380 -26 63 -117 94
-192 66z m151 -35 c22 -20 31 -39 32 -63 4 -97 -6 -198 -32 -328 -17 -80 -41
-203 -55 -275 -27 -139 -41 -171 -78 -181 -33 -8 -104 13 -116 36 -12 22 -12
114 -1 183 4 26 5 47 2 47 -3 0 -49 -7 -102 -16 l-97 -17 -32 -93 c-17 -51
-40 -100 -49 -108 -34 -31 -130 -16 -151 24 -15 27 34 189 92 305 102 204 304
447 413 496 22 10 63 19 91 19 44 0 57 -5 83 -29z"/>
<path d="M3523 1842 c-17 -15 -51 -54 -75 -87 -45 -60 -130 -196 -125 -201 2
-2 170 26 174 30 4 4 62 281 59 283 -1 1 -16 -10 -33 -25z m10 -39 c-3 -16
-16 -68 -28 -118 l-20 -90 -64 -13 c-35 -7 -66 -10 -69 -7 -11 10 163 254 181
255 4 0 4 -12 0 -27z"/>
<path d="M2115 2015 c-111 -20 -220 -71 -281 -133 -33 -33 -59 -105 -120 -337
-79 -303 -102 -409 -91 -438 16 -47 113 -80 167 -57 36 15 36 15 106 281 3 12
22 18 75 23 138 14 233 62 337 170 97 101 135 173 140 267 3 52 0 74 -17 106
-53 104 -165 146 -316 118z m170 -16 c97 -24 164 -120 152 -219 -15 -128 -146
-289 -295 -363 -72 -35 -93 -41 -166 -45 l-84 -4 -38 -137 c-21 -75 -45 -144
-53 -155 -13 -15 -25 -17 -69 -13 -69 7 -102 29 -102 65 0 37 117 498 165 649
29 91 50 115 144 162 127 64 248 85 346 60z"/>
<path d="M2120 1845 c-82 -26 -104 -55 -144 -191 -20 -67 -36 -124 -36 -128 0
-15 61 -4 111 21 81 41 154 118 174 185 16 56 13 80 -13 111 -18 20 -32 20
-92 2z m96 -32 c17 -67 -26 -150 -111 -215 -50 -38 -131 -76 -141 -66 -10 11
58 233 79 256 22 24 133 63 154 55 7 -3 16 -16 19 -30z"/>
<path d="M483 2013 c-39 -7 -63 -58 -143 -296 -116 -345 -168 -544 -156 -591
8 -31 59 -62 116 -71 70 -10 82 5 136 180 26 83 49 152 51 154 1 2 13 -9 24
-25 12 -16 61 -67 108 -114 143 -142 263 -185 368 -131 85 43 83 97 -4 132
-73 29 -115 55 -176 109 -41 36 -103 111 -130 156 -4 7 17 27 51 49 79 53 222
175 271 232 47 55 58 92 41 134 -22 51 -96 75 -147 46 -12 -7 -88 -81 -169
-166 -82 -84 -150 -148 -152 -142 -2 6 10 57 28 112 40 127 45 161 30 188 -20
39 -81 57 -147 44z m122 -38 c14 -13 25 -31 25 -39 0 -8 -17 -70 -39 -138 -69
-219 -76 -218 128 -10 l179 182 46 0 c64 0 95 -36 86 -100 -5 -41 -156 -184
-302 -287 l-77 -54 46 -65 c64 -92 174 -184 263 -218 69 -27 71 -29 68 -60 -2
-26 -11 -35 -48 -53 -63 -33 -110 -29 -199 14 -60 28 -95 55 -166 127 -50 50
-100 105 -112 121 -16 22 -22 26 -26 15 -3 -8 -27 -85 -54 -170 -41 -129 -54
-157 -74 -167 -31 -15 -98 0 -129 30 -20 18 -22 27 -17 81 9 101 208 730 249
789 17 24 26 27 74 27 45 0 59 -4 79 -25z"/>
<path d="M2820 1995 c-102 -32 -185 -95 -265 -200 -208 -273 -189 -558 39
-595 101 -16 217 30 333 131 83 72 123 133 123 185 0 42 -10 54 -49 54 -9 0
-39 -21 -66 -47 -106 -101 -220 -158 -270 -135 -21 10 -25 18 -25 56 0 80 49
189 129 286 75 90 98 99 133 55 31 -40 93 -28 135 25 32 40 3 128 -57 171 -35
25 -106 31 -160 14z m151 -22 c30 -18 69 -85 69 -119 0 -48 -69 -96 -108 -75
-12 6 -24 20 -27 31 -4 12 -15 20 -28 20 -84 0 -257 -261 -257 -387 0 -63 65
-92 137 -61 54 23 136 80 189 130 40 38 58 48 73 43 41 -13 20 -84 -45 -157
-130 -147 -325 -223 -432 -169 -73 37 -105 87 -118 180 -12 93 48 255 140 378
119 158 308 244 407 186z"/>
<path d="M1397 1930 c-119 -30 -268 -161 -331 -292 -77 -161 -73 -316 11 -409
44 -49 74 -65 134 -74 217 -33 479 243 479 504 0 84 -14 135 -53 188 -50 70
-151 105 -240 83z m180 -42 c79 -52 121 -191 93 -309 -41 -174 -177 -342 -318
-392 -60 -22 -154 -22 -198 -1 -45 22 -98 84 -112 133 -21 68 -15 183 13 256
49 132 163 261 280 317 52 25 69 29 131 26 57 -3 79 -9 111 -30z"/>
<path d="M1411 1764 c-63 -32 -112 -87 -158 -182 -31 -62 -37 -86 -41 -157 -4
-80 -4 -83 21 -100 23 -14 32 -15 64 -5 51 17 119 74 155 129 75 118 91 297
30 330 -15 8 -31 4 -71 -15z m86 -31 c13 -31 14 -49 5 -100 -11 -68 -49 -159
-87 -209 -33 -43 -112 -94 -147 -94 -112 0 -12 316 130 410 61 40 79 39 99 -7z"/>
</g>
</svg>
